<svg width="133.54853300899674" height="110" xmlns="http://www.w3.org/2000/svg">

 <g>
  <title>background</title>
  <rect fill="none" id="canvas_background" height="402" width="582" y="-1" x="-1"/>
 </g>
 <g>
  <title>Layer 1</title>
  <g transform="scale(0.5494693517684937) " id="SvgjsG1896">
   <g fill="#0564d1" transform="translate(34.18903732299805,0) scale(1.9849083423614502) " class="B1WN77rH6M" id="SvgjsG1897">
    <path id="svg_1" d="m44,0l43.301,25l0,50l-43.301,25l-43.301,-25l0,-50l43.301,-25z"/>
   </g>
   <g fill="#ffffff" transform="translate(59.70503616333008,39.69816589355469) scale(1.9849083423614502) " class="SkM47mrHTz" id="SvgjsG1898">
    <path id="svg_2" d="m23.277,50.636l-13.169,-33.618l-1.536,0.6l13.156,33.584l1.549,-0.566zm-1.894,4.207l3.79,5.157l1.537,-0.602l-2.228,-5.686l-3.099,1.131zm-14.7,-15.85c-0.173,3.636 5.4,3.942 9.875,7.336l-4.492,-11.469a24.56,24.56 0 0 0 -5.383,4.133zm28.397,-7.846c-0.136,-0.013 -0.271,-0.017 -0.407,-0.026c-0.41,0.989 -0.902,2.227 -1.414,3.616c-2.665,0.976 -5.1,0.709 -7.027,0.062a95.95,95.95 0 0 0 -1.49,-3.693c-0.209,0.013 -0.418,0.024 -0.629,0.041c-2.285,0.233 -5.102,0.756 -8.02,1.842l9.163,23.393c1.164,1.005 2.486,1.585 4.341,1.516c5.291,0.202 6.276,-4.828 11.457,-10.188c4.606,-4.762 11.649,-4.639 11.455,-8.716c-5.508,-5.625 -12.637,-7.357 -17.429,-7.847zm-8.326,5.066c0.932,0.241 1.944,0.4 3.025,0.4c0.939,0 1.927,-0.118 2.948,-0.392c-1.477,4.236 -2.938,9.479 -2.938,13.654c0,-4.177 -1.51,-9.424 -3.035,-13.662zm16.151,-21.258c-0.137,-1.739 -0.136,-2.568 -0.179,-3.095c0.001,-0.044 0.007,-0.083 0.009,-0.133a2.5,2.5 0 0 0 -0.002,-0.547c1.407,-6.446 -4.311,-11.18 -11.358,-11.18c-7.134,0 -12.917,4.852 -12.917,10.835c0,0.2 0.005,0.368 0.014,0.523l-0.014,0.024s0.005,0.023 0.018,0.066c0.026,0.4 0.086,0.637 0.176,0.757c0.147,1.728 -0.462,2.252 -0.047,6.827c0.447,4.934 2.073,8.71 3.04,8.928c0.971,0.218 2.071,0.34 2.46,-0.36a0.898,0.898 0 0 0 0.104,-0.529l-0.033,-0.035c-0.071,-0.568 -0.591,-1.202 -1.145,-1.904c-0.53,-0.67 -0.977,-2.662 -1.513,-4.409c-0.969,-0.294 -1.693,-1.44 -1.693,-2.817c0,-0.791 -0.164,-1.927 0.221,-2.45c0.216,-0.293 0.6,-0.397 1.002,-0.433c0.008,-0.203 0.017,-0.411 0.028,-0.625c0.247,-0.86 0.497,-1.61 0.552,-2.039c0.029,-0.222 -0.078,-0.458 -0.263,-0.677c0.128,-0.724 0.303,-1.356 0.544,-1.752c0.437,-0.723 1.048,-1.109 1.899,-1.109c1.085,-0.011 2.565,0.613 4.585,1.979c1.106,0.749 2.117,0.996 3.024,0.955c2.009,-0.104 3.505,-1.615 4.392,-2.212c0.238,-0.16 0.565,-0.28 0.938,-0.322c0.05,-0.006 0.102,-0.009 0.154,-0.012c0.052,-0.003 0.102,-0.005 0.156,-0.005c1.439,-0.01 3.367,1.213 3.833,5.801c0.535,0.002 1.125,0.058 1.415,0.451c0.385,0.523 0.221,1.659 0.221,2.45c0,1.376 -0.722,2.523 -1.691,2.817c-1.139,2.122 -1.652,4.883 -1.849,6.545c0,0 0.223,1.378 1.564,1.233c1.34,-0.144 0.776,-2.866 1.669,-5.188c0.895,-2.322 1.713,-2.611 2.235,-4.426c0.522,-1.813 0.224,-1.669 0,-4.498l-1.549,0.566z"/>
    <path id="svg_3" d="m38.394,15l-5.109,0c-0.806,0 -1.285,0.82 -1.285,1.627l0,0.373l-2,0l0,-0.373c0,-0.807 -0.289,-1.627 -1.094,-1.627l-5.109,0c-0.806,0 -1.797,0.82 -1.797,1.627l0,2.189c0,0.807 0.991,1.184 1.797,1.184l5.109,0c0.805,0 1.094,-0.377 1.094,-1.184l0,-0.816l2,0l0,0.816c0,0.807 0.479,1.184 1.285,1.184l5.109,0c0.805,0 1.606,-0.377 1.606,-1.184l0,-2.189c0,-0.807 -0.801,-1.627 -1.606,-1.627z"/>
   </g>
  </g>
 </g>
</svg>