<svg id="SvgjsSvg1088" width="300" height="61.123704629731996" xmlns="http://www.w3.org/2000/svg" version="1.1" xmlns:xlink="http://www.w3.org/1999/xlink" xmlns:svgjs="http://svgjs.com/svgjs"><defs id="SvgjsDefs1089"></defs><g id="SvgjsG1090" transform="scale(0.5211242423160317)" opacity="1"><g id="SvgjsG1091" class="BJ2tIRWTG" transform="translate(-0.8353744157371319, -1.1092391630208347) scale(1.1951047333967615)" light-content="false" fill="#0e51fb"><path d="M47 1.732l37.301 21.536a6 6 0 0 1 3 5.196v43.072a6 6 0 0 1-3 5.196L47 98.268a6 6 0 0 1-6 0L3.699 76.732a6 6 0 0 1-3-5.196V28.464a6 6 0 0 1 3-5.196L41 1.732a6 6 0 0 1 6 0z"></path></g><g id="SvgjsG1092" class="BkxnK8R-6z" transform="translate(15.218641144409514, 23.458400399856636) scale(1.1729199866714455)" light-content="true" fill="#ffffff"><path d="M23.277 50.636L10.108 17.018l-1.536.6 13.156 33.584zm-.345 3.641L25.173 60l1.537-.602-2.228-5.686zm-14.7-15.85c-.173 3.636 5.4 3.942 9.875 7.336l-4.492-11.469a24.56 24.56 0 0 0-5.383 4.133zm28.397-7.846c-.136-.013-.271-.017-.407-.026-.41.989-.902 2.227-1.414 3.616-2.665.976-5.1.709-7.027.062a95.95 95.95 0 0 0-1.49-3.693c-.209.013-.418.024-.629.041-2.285.233-5.102.756-8.02 1.842l9.163 23.393c1.164 1.005 2.486 1.585 4.341 1.516 5.291.202 6.276-4.828 11.457-10.188 4.606-4.762 11.649-4.639 11.455-8.716-5.508-5.625-12.637-7.357-17.429-7.847zm-8.326 5.066c.932.241 1.944.4 3.025.4.939 0 1.927-.118 2.948-.392-1.477 4.236-2.938 9.479-2.938 13.654 0-4.177-1.51-9.424-3.035-13.662zm16.151-21.258c-.137-1.739-.136-2.568-.179-3.095.001-.044.007-.083.009-.133a2.5 2.5 0 0 0-.002-.547C44.14 4.734 38.422 0 31.375 0c-7.134 0-12.917 4.852-12.917 10.835 0 .2.005.368.014.523l-.014.024s.005.023.018.066c.026.4.086.637.176.757.147 1.728-.462 2.252-.047 6.827.447 4.934 2.073 8.71 3.04 8.928.971.218 2.071.34 2.46-.36a.898.898 0 0 0 .104-.529l-.033-.035c-.071-.568-.591-1.202-1.145-1.904-.53-.67-.977-2.662-1.513-4.409-.969-.294-1.693-1.44-1.693-2.817 0-.791-.164-1.927.221-2.45.216-.293.6-.397 1.002-.433.008-.203.017-.411.028-.625.247-.86.497-1.61.552-2.039.029-.222-.078-.458-.263-.677.128-.724.303-1.356.544-1.752.437-.723 1.048-1.109 1.899-1.109 1.085-.011 2.565.613 4.585 1.979 1.106.749 2.117.996 3.024.955 2.009-.104 3.505-1.615 4.392-2.212.238-.16.565-.28.938-.322.05-.006.102-.009.154-.012.052-.003.102-.005.156-.005 1.439-.01 3.367 1.213 3.833 5.801.535.002 1.125.058 1.415.451.385.523.221 1.659.221 2.45 0 1.376-.722 2.523-1.691 2.817-1.139 2.122-1.652 4.883-1.849 6.545 0 0 .223 1.378 1.564 1.233 1.34-.144.776-2.866 1.669-5.188.895-2.322 1.713-2.611 2.235-4.426.522-1.813.224-1.669 0-4.498z"></path><path d="M38.394 15h-5.109c-.806 0-1.285.82-1.285 1.627V17h-2v-.373C30 15.82 29.711 15 28.906 15h-5.109c-.806 0-1.797.82-1.797 1.627v2.189c0 .807.991 1.184 1.797 1.184h5.109c.805 0 1.094-.377 1.094-1.184V18h2v.816c0 .807.479 1.184 1.285 1.184h5.109c.805 0 1.606-.377 1.606-1.184v-2.189C40 15.82 39.199 15 38.394 15z"></path></g><g id="SvgjsG1093" class="text" transform="translate(127.43846491530951, 57.85599908447266)" light-content="false" fill="#4a4a4a"><path d="M28.2 -29.28C28.08 -27.28 27.7 -25.69 27.06 -24.51C26.42 -23.33 25.55 -22.42 24.45 -21.78C23.35 -21.14 22.03 -20.72 20.49 -20.52C18.95 -20.32 17.22 -20.22 15.3 -20.22L10.44 -20.22L10.44 -38.16L19.44 -38.16C22.32 -38.16 24.5 -37.39 25.98 -35.85C27.46 -34.31 28.2 -32.12 28.2 -29.28ZM10.44 1.74L10.44 -16.44L18.06 -16.44C20.1 -16.36 22.02 -16.6 23.82 -17.16C25.62 -17.72 27.18 -18.55 28.5 -19.65C29.82 -20.75 30.85 -22.11 31.59 -23.73C32.33 -25.35 32.7 -27.2 32.7 -29.28C32.7 -33.4 31.42 -36.56 28.86 -38.76C26.38 -40.88 22.94 -41.94 18.54 -41.94L7.86 -41.94C7.02 -41.94 6.51 -41.86 6.33 -41.7C6.15 -41.54 6.06 -41.02 6.06 -40.14L6.06 1.74C6.06 2.3 6.34 2.58 6.9 2.58L9.6 2.58C10.16 2.58 10.44 2.3 10.44 1.74Z M49.8 2.58C50.36 2.58 50.64 2.3 50.64 1.74L50.64 -40.98C50.64 -41.54 50.36 -41.82 49.8 -41.82L46.92 -41.82C46.36 -41.82 46.08 -41.54 46.08 -40.98L46.08 1.74C46.08 2.3 46.36 2.58 46.92 2.58Z M79.98 -38.1L92.46 -38.1C93.02 -38.1 93.3 -38.38 93.3 -38.94L93.3 -40.98C93.3 -41.54 93.02 -41.82 92.46 -41.82L63.18 -41.82C62.62 -41.82 62.34 -41.54 62.34 -40.98L62.34 -38.94C62.34 -38.38 62.62 -38.1 63.18 -38.1L75.54 -38.1L75.54 1.74C75.54 2.3 75.82 2.58 76.38 2.58L79.14 2.58C79.7 2.58 79.98 2.3 79.98 1.74Z M132 -1.74C130.92 -1.3 129.55 -0.98 127.89 -0.78C126.23 -0.58 124.56 -0.46 122.88 -0.42C117.08 -0.38 112.56 -2.16 109.32 -5.76C107.76 -7.48 106.6 -9.5 105.84 -11.82C105.08 -14.14 104.7 -16.74 104.7 -19.62C104.7 -25.34 106.26 -29.94 109.38 -33.42C112.74 -37.02 117.24 -38.82 122.88 -38.82C124.64 -38.82 126.22 -38.73 127.62 -38.55C129.02 -38.37 130.5 -38.02 132.06 -37.5C132.58 -37.3 132.88 -37.48 132.96 -38.04L133.08 -40.44C133.12 -41.08 132.84 -41.46 132.24 -41.58C131.44 -41.78 130.68 -41.94 129.96 -42.06C129.24 -42.18 128.51 -42.28 127.77 -42.36C127.03 -42.44 126.27 -42.5 125.49 -42.54C124.71 -42.58 123.84 -42.6 122.88 -42.6C116.12 -42.6 110.64 -40.48 106.44 -36.24C102.32 -32 100.26 -26.46 100.26 -19.62C100.26 -16.14 100.75 -13.02 101.73 -10.26C102.71 -7.5 104.22 -5.08 106.26 -3C110.38 1.24 115.92 3.36 122.88 3.36C125 3.36 126.76 3.26 128.16 3.06C129.56 2.86 130.92 2.54 132.24 2.1C132.84 1.9 133.12 1.54 133.08 1.02L132.96 -1.32C132.96 -1.56 132.86 -1.71 132.66 -1.77C132.46 -1.83 132.24 -1.82 132 -1.74Z M180.06 1.74L180.06 -41.1C180.06 -41.66 179.78 -41.94 179.22 -41.94L176.52 -41.94C175.96 -41.94 175.68 -41.66 175.68 -41.1L175.68 -22.26L152.94 -22.26L152.94 -41.1C152.94 -41.66 152.66 -41.94 152.1 -41.94L149.4 -41.94C148.84 -41.94 148.56 -41.66 148.56 -41.1L148.56 1.74C148.56 2.3 148.84 2.58 149.4 2.58L152.1 2.58C152.66 2.58 152.94 2.3 152.94 1.74L152.94 -18.48L175.68 -18.48L175.68 1.74C175.68 2.3 175.96 2.58 176.52 2.58L179.22 2.58C179.78 2.58 180.06 2.3 180.06 1.74Z M199.74 2.64L221.16 2.64C221.72 2.64 222 2.36 222 1.8L222 -0.36C222 -0.92 221.72 -1.2 221.16 -1.2L202.44 -1.2L202.44 -18.48L219.54 -18.48C220.1 -18.48 220.38 -18.76 220.38 -19.32L220.38 -21.48C220.38 -22.04 220.1 -22.32 219.54 -22.32L202.44 -22.32L202.44 -38.16L220.44 -38.16C221 -38.16 221.28 -38.44 221.28 -39L221.28 -41.1C221.28 -41.66 221 -41.94 220.44 -41.94L199.62 -41.94C198.86 -41.94 198.41 -41.87 198.27 -41.73C198.13 -41.59 198.06 -41.14 198.06 -40.38L198.06 0.96C198.06 1.8 198.13 2.29 198.27 2.43C198.41 2.57 198.9 2.64 199.74 2.64Z M260.7 -28.86C260.7 -27.54 260.42 -26.35 259.86 -25.29C259.3 -24.23 258.52 -23.32 257.52 -22.56C256.52 -21.8 255.33 -21.22 253.95 -20.82C252.57 -20.42 251.06 -20.22 249.42 -20.22L243.12 -20.22L243.12 -38.1L249.3 -38.1C251.46 -38.1 253.26 -37.94 254.7 -37.62C256.14 -37.3 257.31 -36.77 258.21 -36.03C259.11 -35.29 259.75 -34.33 260.13 -33.15C260.51 -31.97 260.7 -30.54 260.7 -28.86ZM267.84 1.74L257.46 -18.12C258.46 -18.6 259.43 -19.21 260.37 -19.95C261.31 -20.69 262.14 -21.52 262.86 -22.44C263.58 -23.36 264.15 -24.36 264.57 -25.44C264.99 -26.52 265.2 -27.66 265.2 -28.86C265.2 -30.82 264.93 -32.6 264.39 -34.2C263.85 -35.8 263.03 -37.16 261.93 -38.28C260.83 -39.4 259.45 -40.27 257.79 -40.89C256.13 -41.51 254.16 -41.82 251.88 -41.82L240.54 -41.82C240.1 -41.82 239.76 -41.81 239.52 -41.79C239.28 -41.77 239.1 -41.7 238.98 -41.58C238.86 -41.46 238.79 -41.28 238.77 -41.04C238.75 -40.8 238.74 -40.46 238.74 -40.02L238.74 1.74C238.74 2.3 239.02 2.58 239.58 2.58L242.28 2.58C242.84 2.58 243.12 2.3 243.12 1.74L243.12 -16.44L248.16 -16.44C249.36 -16.48 250.35 -16.52 251.13 -16.56C251.91 -16.6 252.76 -16.72 253.68 -16.92C254.12 -16.04 254.76 -14.78 255.6 -13.14C256.28 -11.74 257.22 -9.85 258.42 -7.47C259.62 -5.09 261.12 -2.02 262.92 1.74C263.2 2.3 263.64 2.58 264.24 2.58L267.36 2.58C267.6 2.58 267.76 2.49 267.84 2.31C267.92 2.13 267.92 1.94 267.84 1.74Z"></path></g><g id="SvgjsG1094" class="text" transform="translate(131.81846479133185, 97.28599938964844)" light-content="false" fill="#4a4a4a"><path d="M14.38 -0.7C13.94 -0.52 13.4 -0.39 12.73 -0.31C12.07 -0.23 11.4 -0.18 10.73 -0.17C8.41 -0.15 6.6 -0.86 5.3 -2.3C4.68 -2.99 4.22 -3.8 3.91 -4.73C3.61 -5.66 3.46 -6.7 3.46 -7.85C3.46 -10.14 4.08 -11.98 5.33 -13.37C6.67 -14.81 8.47 -15.53 10.73 -15.53C11.43 -15.53 12.06 -15.49 12.62 -15.42C13.18 -15.35 13.78 -15.21 14.4 -15C14.61 -14.92 14.73 -14.99 14.76 -15.22L14.81 -16.18C14.82 -16.43 14.71 -16.58 14.47 -16.63C14.15 -16.71 13.85 -16.78 13.56 -16.82C13.27 -16.87 12.98 -16.91 12.68 -16.94C12.39 -16.98 12.08 -17 11.77 -17.02C11.46 -17.03 11.11 -17.04 10.73 -17.04C8.02 -17.04 5.83 -16.19 4.15 -14.5C2.5 -12.8 1.68 -10.58 1.68 -7.85C1.68 -6.46 1.88 -5.21 2.27 -4.1C2.66 -3 3.26 -2.03 4.08 -1.2C5.73 0.5 7.94 1.34 10.73 1.34C11.58 1.34 12.28 1.3 12.84 1.22C13.4 1.14 13.94 1.02 14.47 0.84C14.71 0.76 14.82 0.62 14.81 0.41L14.76 -0.53C14.76 -0.62 14.72 -0.68 14.64 -0.71C14.56 -0.73 14.47 -0.73 14.38 -0.7Z M28.15 -5.74L28.15 -4.92C28.15 -4.12 28.06 -3.41 27.86 -2.8C27.67 -2.18 27.4 -1.66 27.05 -1.25C26.7 -0.83 26.28 -0.51 25.81 -0.29C25.34 -0.06 24.82 0.05 24.26 0.05C23.46 0.05 22.82 -0.14 22.34 -0.53C22.07 -0.72 21.87 -0.99 21.74 -1.33C21.62 -1.68 21.55 -2.05 21.55 -2.45C21.55 -3.1 21.72 -3.67 22.06 -4.14C22.39 -4.61 22.9 -4.97 23.57 -5.21C24.03 -5.38 24.61 -5.52 25.31 -5.63C26 -5.73 26.8 -5.77 27.7 -5.74ZM21.31 -9.94C21.89 -10.29 22.5 -10.54 23.14 -10.69C23.78 -10.84 24.46 -10.92 25.18 -10.92C26.25 -10.92 27.01 -10.66 27.47 -10.13C27.92 -9.6 28.15 -8.83 28.15 -7.82L28.15 -7.1L27.84 -7.1C25.46 -7.1 23.69 -6.9 22.54 -6.48C21.59 -6.13 20.89 -5.6 20.44 -4.9C19.98 -4.19 19.75 -3.35 19.75 -2.38C19.75 -1.96 19.82 -1.54 19.94 -1.12C20.07 -0.69 20.26 -0.32 20.52 0C21.27 0.94 22.46 1.42 24.07 1.42C25 1.42 25.86 1.19 26.65 0.74C27.44 0.3 28.01 -0.34 28.34 -1.15L28.34 0.7C28.34 0.92 28.46 1.03 28.68 1.03L29.54 1.03C29.77 1.03 29.88 0.92 29.88 0.7C29.85 0.34 29.82 -0.02 29.81 -0.4C29.79 -0.77 29.78 -1.2 29.78 -1.68L29.78 -7.7C29.78 -9.24 29.42 -10.39 28.68 -11.15C27.94 -11.91 26.78 -12.29 25.18 -12.29C24.42 -12.29 23.73 -12.23 23.1 -12.11C22.47 -11.99 21.87 -11.78 21.31 -11.47C21.09 -11.36 20.98 -11.19 20.98 -10.97L20.98 -10.06C20.98 -9.98 21.01 -9.92 21.08 -9.9C21.16 -9.88 21.23 -9.89 21.31 -9.94Z M42.34 -10.49C42.42 -10.46 42.5 -10.46 42.58 -10.49C42.66 -10.52 42.7 -10.58 42.7 -10.68L42.7 -11.69C42.7 -11.82 42.66 -11.92 42.59 -11.99C42.52 -12.06 42.43 -12.11 42.34 -12.14C41.97 -12.24 41.6 -12.29 41.23 -12.29C39.71 -12.29 38.56 -11.28 37.78 -9.26L37.78 -11.62C37.78 -11.84 37.66 -11.95 37.44 -11.95L36.55 -11.95C36.33 -11.95 36.22 -11.84 36.22 -11.62C36.23 -11.2 36.24 -10.81 36.25 -10.45C36.26 -10.09 36.26 -9.62 36.26 -9.05L36.26 0.7C36.26 0.92 36.38 1.03 36.6 1.03L37.54 1.03C37.76 1.03 37.87 0.92 37.87 0.7L37.87 -5.38C37.87 -6.8 38.1 -7.97 38.54 -8.88C39.12 -10.05 40 -10.63 41.18 -10.63C41.66 -10.63 42.05 -10.58 42.34 -10.49Z M54.74 -5.74L54.74 -4.92C54.74 -4.12 54.65 -3.41 54.46 -2.8C54.26 -2.18 53.99 -1.66 53.64 -1.25C53.29 -0.83 52.88 -0.51 52.4 -0.29C51.93 -0.06 51.42 0.05 50.86 0.05C50.06 0.05 49.42 -0.14 48.94 -0.53C48.66 -0.72 48.46 -0.99 48.34 -1.33C48.21 -1.68 48.14 -2.05 48.14 -2.45C48.14 -3.1 48.31 -3.67 48.65 -4.14C48.98 -4.61 49.49 -4.97 50.16 -5.21C50.62 -5.38 51.2 -5.52 51.9 -5.63C52.6 -5.73 53.39 -5.77 54.29 -5.74ZM47.9 -9.94C48.48 -10.29 49.09 -10.54 49.73 -10.69C50.37 -10.84 51.05 -10.92 51.77 -10.92C52.84 -10.92 53.6 -10.66 54.06 -10.13C54.52 -9.6 54.74 -8.83 54.74 -7.82L54.74 -7.1L54.43 -7.1C52.05 -7.1 50.28 -6.9 49.13 -6.48C48.18 -6.13 47.48 -5.6 47.03 -4.9C46.57 -4.19 46.34 -3.35 46.34 -2.38C46.34 -1.96 46.41 -1.54 46.54 -1.12C46.66 -0.69 46.86 -0.32 47.11 0C47.86 0.94 49.05 1.42 50.66 1.42C51.59 1.42 52.45 1.19 53.24 0.74C54.04 0.3 54.6 -0.34 54.94 -1.15L54.94 0.7C54.94 0.92 55.05 1.03 55.27 1.03L56.14 1.03C56.36 1.03 56.47 0.92 56.47 0.7C56.44 0.34 56.42 -0.02 56.4 -0.4C56.38 -0.77 56.38 -1.2 56.38 -1.68L56.38 -7.7C56.38 -9.24 56.01 -10.39 55.27 -11.15C54.54 -11.91 53.37 -12.29 51.77 -12.29C51.02 -12.29 50.32 -12.23 49.69 -12.11C49.06 -11.99 48.46 -11.78 47.9 -11.47C47.68 -11.36 47.57 -11.19 47.57 -10.97L47.57 -10.06C47.57 -9.98 47.6 -9.92 47.68 -9.9C47.75 -9.88 47.82 -9.89 47.9 -9.94Z M71.98 -8.9L71.98 0.7C71.98 0.92 72.09 1.03 72.31 1.03L73.25 1.03C73.47 1.03 73.58 0.92 73.58 0.7L73.58 -7.03C73.58 -8.18 73.9 -9.11 74.52 -9.82C75.14 -10.52 76 -10.87 77.09 -10.87C78.94 -10.87 79.87 -9.78 79.87 -7.58L79.87 0.7C79.87 0.92 79.98 1.03 80.21 1.03L81.17 1.03C81.39 1.03 81.5 0.92 81.5 0.7L81.5 -6.14C81.49 -6.78 81.56 -7.39 81.71 -7.97C81.86 -8.54 82.09 -9.05 82.4 -9.48C82.72 -9.91 83.09 -10.25 83.53 -10.5C83.97 -10.75 84.47 -10.87 85.03 -10.87C86.87 -10.87 87.79 -9.78 87.79 -7.58L87.79 0.72C87.79 0.93 87.9 1.03 88.13 1.03L89.04 1.03C89.26 1.03 89.38 0.92 89.38 0.7L89.38 -7.92C89.38 -8.51 89.28 -9.07 89.09 -9.6C88.9 -10.13 88.62 -10.59 88.26 -10.98C87.9 -11.37 87.47 -11.68 86.96 -11.9C86.46 -12.13 85.9 -12.24 85.27 -12.24C84.3 -12.24 83.44 -12 82.69 -11.53C81.95 -11.06 81.41 -10.37 81.07 -9.46C80.91 -10.37 80.47 -11.06 79.75 -11.53C79.03 -12 78.19 -12.24 77.23 -12.24C76.32 -12.24 75.55 -12.07 74.93 -11.72C74.3 -11.38 73.81 -10.91 73.44 -10.32L73.44 -11.62C73.44 -11.84 73.33 -11.95 73.1 -11.95L72.22 -11.95C71.99 -11.95 71.88 -11.84 71.88 -11.62C71.91 -11.26 71.94 -10.89 71.95 -10.5C71.97 -10.11 71.98 -9.58 71.98 -8.9Z M106.46 0.7C106.45 0.28 106.44 -0.14 106.43 -0.55C106.42 -0.97 106.42 -1.44 106.42 -1.97L106.42 -11.62C106.42 -11.84 106.3 -11.95 106.08 -11.95L105.12 -11.95C104.9 -11.95 104.78 -11.84 104.78 -11.62L104.78 -4.94C104.8 -4.27 104.72 -3.63 104.54 -3.02C104.37 -2.42 104.11 -1.88 103.78 -1.43C103.44 -0.97 103.03 -0.61 102.54 -0.35C102.05 -0.08 101.5 0.05 100.9 0.05C98.82 0.05 97.78 -1.31 97.78 -4.03L97.78 -11.62C97.78 -11.84 97.66 -11.95 97.44 -11.95L96.48 -11.95C96.26 -11.95 96.14 -11.84 96.14 -11.62L96.14 -3.6C96.14 -0.26 97.64 1.42 100.63 1.42C101.69 1.42 102.56 1.2 103.26 0.78C103.96 0.36 104.51 -0.34 104.93 -1.3L104.93 0.7C104.93 0.92 105.04 1.03 105.26 1.03L106.13 1.03C106.35 1.03 106.46 0.92 106.46 0.7Z M114.14 -5.47C114.14 -6.19 114.2 -6.86 114.32 -7.48C114.44 -8.09 114.63 -8.63 114.89 -9.1C115.59 -10.26 116.62 -10.85 117.98 -10.85C118.62 -10.85 119.18 -10.71 119.66 -10.44C120.14 -10.17 120.55 -9.79 120.88 -9.31C121.2 -8.83 121.45 -8.26 121.62 -7.61C121.79 -6.95 121.87 -6.24 121.87 -5.47C121.87 -4.85 121.79 -4.21 121.63 -3.56C121.47 -2.92 121.23 -2.33 120.9 -1.81C120.57 -1.29 120.16 -0.86 119.68 -0.53C119.19 -0.19 118.62 -0.02 117.98 -0.02C117.28 -0.02 116.68 -0.18 116.17 -0.48C115.67 -0.78 115.24 -1.22 114.89 -1.8C114.63 -2.26 114.44 -2.8 114.32 -3.42C114.2 -4.04 114.14 -4.72 114.14 -5.47ZM123.48 0.7L123.48 -17.71C123.48 -17.94 123.37 -18.05 123.14 -18.05L122.21 -18.05C121.98 -18.05 121.87 -17.94 121.87 -17.71L121.87 -10.15C121.54 -10.76 121 -11.26 120.25 -11.64C119.51 -12.02 118.66 -12.22 117.7 -12.22C114.14 -12.22 112.37 -9.97 112.37 -5.47C112.37 -3.46 112.81 -1.84 113.69 -0.62C114.65 0.69 115.98 1.34 117.7 1.34C119.62 1.34 121.01 0.53 121.87 -1.1L121.87 0.7C121.87 0.92 121.98 1.03 122.21 1.03L123.14 1.03C123.37 1.03 123.48 0.92 123.48 0.7Z M137.42 -5.74L137.42 -4.92C137.42 -4.12 137.33 -3.41 137.14 -2.8C136.94 -2.18 136.67 -1.66 136.32 -1.25C135.97 -0.83 135.56 -0.51 135.08 -0.29C134.61 -0.06 134.1 0.05 133.54 0.05C132.74 0.05 132.1 -0.14 131.62 -0.53C131.34 -0.72 131.14 -0.99 131.02 -1.33C130.89 -1.68 130.82 -2.05 130.82 -2.45C130.82 -3.1 130.99 -3.67 131.33 -4.14C131.66 -4.61 132.17 -4.97 132.84 -5.21C133.3 -5.38 133.88 -5.52 134.58 -5.63C135.28 -5.73 136.07 -5.77 136.97 -5.74ZM130.58 -9.94C131.16 -10.29 131.77 -10.54 132.41 -10.69C133.05 -10.84 133.73 -10.92 134.45 -10.92C135.52 -10.92 136.28 -10.66 136.74 -10.13C137.2 -9.6 137.42 -8.83 137.42 -7.82L137.42 -7.1L137.11 -7.1C134.73 -7.1 132.96 -6.9 131.81 -6.48C130.86 -6.13 130.16 -5.6 129.71 -4.9C129.25 -4.19 129.02 -3.35 129.02 -2.38C129.02 -1.96 129.09 -1.54 129.22 -1.12C129.34 -0.69 129.54 -0.32 129.79 0C130.54 0.94 131.73 1.42 133.34 1.42C134.27 1.42 135.13 1.19 135.92 0.74C136.72 0.3 137.28 -0.34 137.62 -1.15L137.62 0.7C137.62 0.92 137.73 1.03 137.95 1.03L138.82 1.03C139.04 1.03 139.15 0.92 139.15 0.7C139.12 0.34 139.1 -0.02 139.08 -0.4C139.06 -0.77 139.06 -1.2 139.06 -1.68L139.06 -7.7C139.06 -9.24 138.69 -10.39 137.95 -11.15C137.22 -11.91 136.05 -12.29 134.45 -12.29C133.7 -12.29 133 -12.23 132.37 -12.11C131.74 -11.99 131.14 -11.78 130.58 -11.47C130.36 -11.36 130.25 -11.19 130.25 -10.97L130.25 -10.06C130.25 -9.98 130.28 -9.92 130.36 -9.9C130.43 -9.88 130.5 -9.89 130.58 -9.94Z M155.78 0.7L155.78 -6.72C155.78 -8.58 155.42 -9.96 154.7 -10.87C153.98 -11.78 152.85 -12.24 151.3 -12.24C150.3 -12.24 149.48 -12.12 148.81 -11.89C148.15 -11.66 147.59 -11.29 147.14 -10.78L147.14 -17.74C147.14 -17.96 147.03 -18.07 146.81 -18.07L145.85 -18.07C145.62 -18.07 145.51 -17.96 145.51 -17.74L145.51 0.7C145.51 0.92 145.62 1.03 145.85 1.03L146.81 1.03C147.03 1.03 147.14 0.92 147.14 0.7L147.14 -7.34C147.14 -8.45 147.49 -9.31 148.19 -9.94C148.88 -10.56 149.89 -10.87 151.2 -10.87C151.65 -10.87 152.06 -10.8 152.42 -10.66C152.79 -10.51 153.1 -10.28 153.36 -9.95C153.62 -9.62 153.81 -9.19 153.95 -8.65C154.08 -8.12 154.15 -7.46 154.15 -6.7L154.15 0.7C154.15 0.92 154.26 1.03 154.49 1.03L155.45 1.03C155.67 1.03 155.78 0.92 155.78 0.7Z M171.6 -8.9L171.6 0.7C171.6 0.92 171.71 1.03 171.94 1.03L172.87 1.03C173.1 1.03 173.21 0.92 173.21 0.7L173.21 -7.03C173.21 -8.18 173.52 -9.11 174.14 -9.82C174.77 -10.52 175.62 -10.87 176.71 -10.87C178.57 -10.87 179.5 -9.78 179.5 -7.58L179.5 0.7C179.5 0.92 179.61 1.03 179.83 1.03L180.79 1.03C181.02 1.03 181.13 0.92 181.13 0.7L181.13 -6.14C181.11 -6.78 181.18 -7.39 181.33 -7.97C181.48 -8.54 181.72 -9.05 182.03 -9.48C182.34 -9.91 182.72 -10.25 183.16 -10.5C183.6 -10.75 184.1 -10.87 184.66 -10.87C186.5 -10.87 187.42 -9.78 187.42 -7.58L187.42 0.72C187.42 0.93 187.53 1.03 187.75 1.03L188.66 1.03C188.89 1.03 189 0.92 189 0.7L189 -7.92C189 -8.51 188.9 -9.07 188.71 -9.6C188.52 -10.13 188.24 -10.59 187.88 -10.98C187.52 -11.37 187.09 -11.68 186.59 -11.9C186.08 -12.13 185.52 -12.24 184.9 -12.24C183.92 -12.24 183.06 -12 182.32 -11.53C181.57 -11.06 181.03 -10.37 180.7 -9.46C180.54 -10.37 180.1 -11.06 179.38 -11.53C178.66 -12 177.82 -12.24 176.86 -12.24C175.94 -12.24 175.18 -12.07 174.55 -11.72C173.93 -11.38 173.43 -10.91 173.06 -10.32L173.06 -11.62C173.06 -11.84 172.95 -11.95 172.73 -11.95L171.84 -11.95C171.62 -11.95 171.5 -11.84 171.5 -11.62C171.54 -11.26 171.56 -10.89 171.58 -10.5C171.59 -10.11 171.6 -9.58 171.6 -8.9Z M203.78 -6.36L196.58 -6.36C196.6 -6.89 196.7 -7.43 196.9 -7.99C197.09 -8.55 197.33 -9.05 197.62 -9.48C198.34 -10.44 199.27 -10.92 200.42 -10.92C201.54 -10.92 202.4 -10.45 202.99 -9.5C203.26 -9.09 203.46 -8.62 203.59 -8.11C203.72 -7.6 203.78 -7.02 203.78 -6.36ZM196.58 -4.99L204.7 -4.99C204.92 -4.99 205.09 -5 205.21 -5C205.33 -5.01 205.42 -5.04 205.46 -5.09C205.51 -5.14 205.54 -5.22 205.55 -5.33C205.56 -5.44 205.56 -5.6 205.56 -5.81C205.56 -7.71 205.15 -9.23 204.34 -10.37C203.87 -11.01 203.31 -11.49 202.66 -11.81C202 -12.13 201.22 -12.29 200.33 -12.29C198.71 -12.29 197.38 -11.66 196.32 -10.39C195.31 -9.14 194.81 -7.5 194.81 -5.47C194.81 -3.17 195.31 -1.44 196.32 -0.3C197.33 0.84 198.82 1.42 200.78 1.42C201.46 1.42 202.08 1.36 202.66 1.26C203.23 1.16 203.78 1 204.31 0.79C204.49 0.71 204.58 0.6 204.58 0.46L204.58 -0.62C204.58 -0.83 204.47 -0.89 204.26 -0.79C203.78 -0.52 203.26 -0.32 202.7 -0.2C202.14 -0.08 201.54 -0.02 200.9 -0.02C200.25 -0.02 199.65 -0.14 199.12 -0.36C198.58 -0.58 198.12 -0.9 197.74 -1.32C197.35 -1.74 197.06 -2.25 196.86 -2.87C196.66 -3.48 196.57 -4.19 196.58 -4.99Z M221.52 0.7L221.52 -7.25C221.52 -8.85 221.14 -10.09 220.37 -10.97C219.6 -11.85 218.46 -12.29 216.94 -12.29C215.83 -12.29 214.96 -12.13 214.33 -11.81C213.7 -11.49 213.16 -10.98 212.71 -10.3L212.71 -11.62C212.71 -11.84 212.6 -11.95 212.38 -11.95L211.51 -11.95C211.42 -11.95 211.33 -11.92 211.26 -11.87C211.19 -11.81 211.16 -11.73 211.18 -11.62C211.21 -11.26 211.23 -10.9 211.24 -10.51C211.24 -10.13 211.25 -9.59 211.25 -8.9L211.25 0.7C211.25 0.92 211.36 1.03 211.58 1.03L212.54 1.03C212.77 1.03 212.88 0.92 212.88 0.7L212.88 -6.82C212.88 -8.11 213.22 -9.12 213.9 -9.84C214.58 -10.56 215.57 -10.92 216.86 -10.92C217.82 -10.92 218.57 -10.61 219.1 -10C219.62 -9.38 219.89 -8.34 219.89 -6.86L219.89 0.7C219.89 0.92 220 1.03 220.22 1.03L221.18 1.03C221.41 1.03 221.52 0.92 221.52 0.7Z M236.52 1.13C236.76 1.08 236.87 0.94 236.86 0.7L236.78 -0.19C236.77 -0.37 236.64 -0.42 236.4 -0.36C235.94 -0.23 235.52 -0.14 235.15 -0.1C234.78 -0.05 234.32 -0.02 233.76 -0.02C233.01 -0.02 232.34 -0.17 231.76 -0.47C231.17 -0.76 230.68 -1.16 230.27 -1.67C229.86 -2.17 229.55 -2.75 229.33 -3.41C229.12 -4.06 229.01 -4.75 229.01 -5.47C229.01 -6.26 229.11 -6.98 229.32 -7.64C229.53 -8.31 229.84 -8.88 230.26 -9.36C230.67 -9.84 231.19 -10.21 231.8 -10.48C232.42 -10.74 233.14 -10.87 233.95 -10.87C234.42 -10.87 234.84 -10.84 235.22 -10.79C235.61 -10.73 236.01 -10.64 236.42 -10.51C236.63 -10.46 236.75 -10.54 236.78 -10.73L236.86 -11.5C236.87 -11.74 236.77 -11.89 236.54 -11.95C236.05 -12.06 235.58 -12.14 235.15 -12.18C234.72 -12.22 234.24 -12.24 233.71 -12.24C232.72 -12.24 231.83 -12.07 231.04 -11.72C230.24 -11.38 229.56 -10.91 229 -10.31C228.43 -9.71 227.99 -9 227.69 -8.17C227.38 -7.35 227.23 -6.45 227.23 -5.47C227.23 -4.51 227.38 -3.62 227.66 -2.78C227.95 -1.95 228.36 -1.23 228.9 -0.62C229.44 -0.02 230.09 0.46 230.87 0.82C231.64 1.17 232.53 1.34 233.52 1.34C234.14 1.34 234.68 1.33 235.13 1.3C235.58 1.26 236.04 1.21 236.52 1.13Z M249.6 -5.74L249.6 -4.92C249.6 -4.12 249.5 -3.41 249.31 -2.8C249.12 -2.18 248.85 -1.66 248.5 -1.25C248.14 -0.83 247.73 -0.51 247.26 -0.29C246.79 -0.06 246.27 0.05 245.71 0.05C244.91 0.05 244.27 -0.14 243.79 -0.53C243.52 -0.72 243.32 -0.99 243.19 -1.33C243.06 -1.68 243 -2.05 243 -2.45C243 -3.1 243.17 -3.67 243.5 -4.14C243.84 -4.61 244.34 -4.97 245.02 -5.21C245.48 -5.38 246.06 -5.52 246.76 -5.63C247.45 -5.73 248.25 -5.77 249.14 -5.74ZM242.76 -9.94C243.34 -10.29 243.94 -10.54 244.58 -10.69C245.22 -10.84 245.9 -10.92 246.62 -10.92C247.7 -10.92 248.46 -10.66 248.92 -10.13C249.37 -9.6 249.6 -8.83 249.6 -7.82L249.6 -7.1L249.29 -7.1C246.9 -7.1 245.14 -6.9 243.98 -6.48C243.04 -6.13 242.34 -5.6 241.88 -4.9C241.43 -4.19 241.2 -3.35 241.2 -2.38C241.2 -1.96 241.26 -1.54 241.39 -1.12C241.52 -0.69 241.71 -0.32 241.97 0C242.72 0.94 243.9 1.42 245.52 1.42C246.45 1.42 247.31 1.19 248.1 0.74C248.89 0.3 249.46 -0.34 249.79 -1.15L249.79 0.7C249.79 0.92 249.9 1.03 250.13 1.03L250.99 1.03C251.22 1.03 251.33 0.92 251.33 0.7C251.3 0.34 251.27 -0.02 251.26 -0.4C251.24 -0.77 251.23 -1.2 251.23 -1.68L251.23 -7.7C251.23 -9.24 250.86 -10.39 250.13 -11.15C249.39 -11.91 248.22 -12.29 246.62 -12.29C245.87 -12.29 245.18 -12.23 244.55 -12.11C243.92 -11.99 243.32 -11.78 242.76 -11.47C242.54 -11.36 242.42 -11.19 242.42 -10.97L242.42 -10.06C242.42 -9.98 242.46 -9.92 242.53 -9.9C242.6 -9.88 242.68 -9.89 242.76 -9.94Z M263.78 -10.49C263.86 -10.46 263.94 -10.46 264.02 -10.49C264.1 -10.52 264.14 -10.58 264.14 -10.68L264.14 -11.69C264.14 -11.82 264.11 -11.92 264.04 -11.99C263.96 -12.06 263.88 -12.11 263.78 -12.14C263.42 -12.24 263.05 -12.29 262.68 -12.29C261.16 -12.29 260.01 -11.28 259.22 -9.26L259.22 -11.62C259.22 -11.84 259.11 -11.95 258.89 -11.95L258 -11.95C257.78 -11.95 257.66 -11.84 257.66 -11.62C257.68 -11.2 257.69 -10.81 257.7 -10.45C257.71 -10.09 257.71 -9.62 257.71 -9.05L257.71 0.7C257.71 0.92 257.82 1.03 258.05 1.03L258.98 1.03C259.21 1.03 259.32 0.92 259.32 0.7L259.32 -5.38C259.32 -6.8 259.54 -7.97 259.99 -8.88C260.57 -10.05 261.45 -10.63 262.63 -10.63C263.11 -10.63 263.5 -10.58 263.78 -10.49Z M270.17 1.03C270.39 1.03 270.5 0.92 270.5 0.7L270.5 -11.62C270.5 -11.84 270.39 -11.95 270.17 -11.95L269.11 -11.95C268.89 -11.95 268.78 -11.84 268.78 -11.62L268.78 0.7C268.78 0.92 268.89 1.03 269.11 1.03ZM268.46 -16.49C268.46 -16.17 268.58 -15.9 268.8 -15.67C269.02 -15.45 269.3 -15.34 269.62 -15.34C269.94 -15.34 270.21 -15.45 270.44 -15.67C270.68 -15.9 270.79 -16.17 270.79 -16.49C270.79 -16.81 270.68 -17.08 270.44 -17.32C270.21 -17.55 269.94 -17.66 269.62 -17.66C269.3 -17.66 269.02 -17.55 268.8 -17.32C268.58 -17.08 268.46 -16.81 268.46 -16.49Z M294.96 -5.52C294.96 -4.83 294.86 -4.2 294.65 -3.62C294.44 -3.05 294.16 -2.55 293.8 -2.12C293.44 -1.7 293.01 -1.37 292.51 -1.14C292.02 -0.91 291.49 -0.79 290.93 -0.79C290.38 -0.79 289.88 -0.91 289.42 -1.14C288.95 -1.37 288.55 -1.69 288.22 -2.1C287.88 -2.51 287.62 -3 287.42 -3.58C287.23 -4.15 287.14 -4.78 287.14 -5.47C287.14 -7.34 287.46 -8.71 288.12 -9.58C288.78 -10.44 289.75 -10.87 291.05 -10.87C292.25 -10.87 293.2 -10.41 293.9 -9.48C294.61 -8.55 294.96 -7.23 294.96 -5.52ZM286.7 4.18C287.36 4.38 287.96 4.53 288.5 4.62C289.05 4.71 289.68 4.75 290.4 4.75C291.39 4.75 292.27 4.6 293.04 4.28C293.81 3.97 294.45 3.52 294.97 2.94C295.49 2.36 295.88 1.64 296.15 0.8C296.41 -0.04 296.54 -0.98 296.54 -2.02L296.54 -11.62C296.54 -11.84 296.43 -11.95 296.21 -11.95L295.3 -11.95C295.07 -11.95 294.96 -11.84 294.96 -11.62L295.01 -10.32C294.34 -11.04 293.68 -11.54 293.03 -11.82C292.38 -12.1 291.63 -12.24 290.78 -12.24C289.81 -12.24 288.98 -12.09 288.29 -11.78C287.6 -11.48 287.04 -11.04 286.61 -10.46C286.18 -9.89 285.86 -9.18 285.66 -8.34C285.46 -7.5 285.36 -6.54 285.36 -5.47C285.36 -4.56 285.5 -3.73 285.79 -2.98C286.08 -2.22 286.47 -1.58 286.97 -1.06C287.46 -0.53 288.05 -0.12 288.72 0.17C289.39 0.46 290.12 0.6 290.9 0.6C291.78 0.6 292.58 0.42 293.3 0.05C294.02 -0.32 294.57 -0.86 294.94 -1.58C294.84 -0.05 294.43 1.16 293.7 2.05C292.97 2.94 291.88 3.38 290.42 3.38C289.77 3.38 289.16 3.32 288.6 3.2C288.04 3.08 287.46 2.89 286.85 2.62C286.64 2.5 286.54 2.55 286.54 2.76L286.46 3.82C286.43 4.01 286.51 4.13 286.7 4.18Z M313.39 0.7C313.38 0.28 313.36 -0.14 313.36 -0.55C313.35 -0.97 313.34 -1.44 313.34 -1.97L313.34 -11.62C313.34 -11.84 313.23 -11.95 313.01 -11.95L312.05 -11.95C311.82 -11.95 311.71 -11.84 311.71 -11.62L311.71 -4.94C311.73 -4.27 311.65 -3.63 311.47 -3.02C311.3 -2.42 311.04 -1.88 310.7 -1.43C310.37 -0.97 309.96 -0.61 309.47 -0.35C308.98 -0.08 308.43 0.05 307.82 0.05C305.74 0.05 304.7 -1.31 304.7 -4.03L304.7 -11.62C304.7 -11.84 304.59 -11.95 304.37 -11.95L303.41 -11.95C303.18 -11.95 303.07 -11.84 303.07 -11.62L303.07 -3.6C303.07 -0.26 304.57 1.42 307.56 1.42C308.62 1.42 309.49 1.2 310.19 0.78C310.88 0.36 311.44 -0.34 311.86 -1.3L311.86 0.7C311.86 0.92 311.97 1.03 312.19 1.03L313.06 1.03C313.28 1.03 313.39 0.92 313.39 0.7Z M326.11 -10.49C326.19 -10.46 326.27 -10.46 326.35 -10.49C326.43 -10.52 326.47 -10.58 326.47 -10.68L326.47 -11.69C326.47 -11.82 326.44 -11.92 326.36 -11.99C326.29 -12.06 326.21 -12.11 326.11 -12.14C325.74 -12.24 325.38 -12.29 325.01 -12.29C323.49 -12.29 322.34 -11.28 321.55 -9.26L321.55 -11.62C321.55 -11.84 321.44 -11.95 321.22 -11.95L320.33 -11.95C320.1 -11.95 319.99 -11.84 319.99 -11.62C320.01 -11.2 320.02 -10.81 320.03 -10.45C320.04 -10.09 320.04 -9.62 320.04 -9.05L320.04 0.7C320.04 0.92 320.15 1.03 320.38 1.03L321.31 1.03C321.54 1.03 321.65 0.92 321.65 0.7L321.65 -5.38C321.65 -6.8 321.87 -7.97 322.32 -8.88C322.9 -10.05 323.78 -10.63 324.96 -10.63C325.44 -10.63 325.82 -10.58 326.11 -10.49Z M341.45 0.7C341.43 0.28 341.42 -0.14 341.41 -0.55C341.4 -0.97 341.4 -1.44 341.4 -1.97L341.4 -11.62C341.4 -11.84 341.29 -11.95 341.06 -11.95L340.1 -11.95C339.88 -11.95 339.77 -11.84 339.77 -11.62L339.77 -4.94C339.78 -4.27 339.7 -3.63 339.53 -3.02C339.35 -2.42 339.1 -1.88 338.76 -1.43C338.42 -0.97 338.01 -0.61 337.52 -0.35C337.04 -0.08 336.49 0.05 335.88 0.05C333.8 0.05 332.76 -1.31 332.76 -4.03L332.76 -11.62C332.76 -11.84 332.65 -11.95 332.42 -11.95L331.46 -11.95C331.24 -11.95 331.13 -11.84 331.13 -11.62L331.13 -3.6C331.13 -0.26 332.62 1.42 335.62 1.42C336.67 1.42 337.55 1.2 338.24 0.78C338.94 0.36 339.5 -0.34 339.91 -1.3L339.91 0.7C339.91 0.92 340.02 1.03 340.25 1.03L341.11 1.03C341.34 1.03 341.45 0.92 341.45 0.7Z M366.17 -5.64C366.17 -4.78 366.08 -4 365.92 -3.31C365.75 -2.62 365.5 -2.03 365.17 -1.54C364.84 -1.04 364.44 -0.66 363.97 -0.4C363.5 -0.13 362.96 0 362.35 0C361.18 0 360.25 -0.48 359.56 -1.43C358.86 -2.38 358.51 -3.78 358.51 -5.64C358.51 -6.34 358.59 -7.01 358.75 -7.63C358.91 -8.26 359.15 -8.8 359.46 -9.28C359.77 -9.75 360.17 -10.12 360.65 -10.39C361.13 -10.66 361.7 -10.8 362.35 -10.8C363.07 -10.8 363.67 -10.65 364.15 -10.36C364.63 -10.06 365.02 -9.67 365.33 -9.19C365.63 -8.71 365.85 -8.16 365.98 -7.55C366.1 -6.93 366.17 -6.3 366.17 -5.64ZM356.9 -11.62L356.9 4.37C356.9 4.46 356.94 4.54 357.01 4.61C357.08 4.67 357.17 4.7 357.26 4.7L358.18 4.7C358.4 4.7 358.51 4.59 358.51 4.37L358.51 -0.79C358.88 -0.12 359.42 0.4 360.12 0.78C360.82 1.16 361.66 1.34 362.64 1.34C363.5 1.34 364.26 1.16 364.92 0.8C365.58 0.44 366.12 -0.05 366.56 -0.67C367 -1.3 367.34 -2.03 367.57 -2.88C367.8 -3.73 367.92 -4.65 367.92 -5.64C367.92 -6.55 367.82 -7.41 367.62 -8.21C367.42 -9.01 367.11 -9.7 366.68 -10.28C366.26 -10.87 365.72 -11.33 365.05 -11.66C364.39 -12 363.58 -12.17 362.64 -12.17C361.63 -12.17 360.75 -11.95 359.99 -11.52C359.23 -11.09 358.69 -10.52 358.37 -9.82L358.49 -11.62C358.49 -11.84 358.38 -11.95 358.15 -11.95L357.24 -11.95C357.02 -11.95 356.9 -11.84 356.9 -11.62Z M380.23 -10.49C380.31 -10.46 380.39 -10.46 380.47 -10.49C380.55 -10.52 380.59 -10.58 380.59 -10.68L380.59 -11.69C380.59 -11.82 380.56 -11.92 380.48 -11.99C380.41 -12.06 380.33 -12.11 380.23 -12.14C379.86 -12.24 379.5 -12.29 379.13 -12.29C377.61 -12.29 376.46 -11.28 375.67 -9.26L375.67 -11.62C375.67 -11.84 375.56 -11.95 375.34 -11.95L374.45 -11.95C374.22 -11.95 374.11 -11.84 374.11 -11.62C374.13 -11.2 374.14 -10.81 374.15 -10.45C374.16 -10.09 374.16 -9.62 374.16 -9.05L374.16 0.7C374.16 0.92 374.27 1.03 374.5 1.03L375.43 1.03C375.66 1.03 375.77 0.92 375.77 0.7L375.77 -5.38C375.77 -6.8 375.99 -7.97 376.44 -8.88C377.02 -10.05 377.9 -10.63 379.08 -10.63C379.56 -10.63 379.94 -10.58 380.23 -10.49Z M386.62 1.03C386.84 1.03 386.95 0.92 386.95 0.7L386.95 -11.62C386.95 -11.84 386.84 -11.95 386.62 -11.95L385.56 -11.95C385.34 -11.95 385.22 -11.84 385.22 -11.62L385.22 0.7C385.22 0.92 385.34 1.03 385.56 1.03ZM384.91 -16.49C384.91 -16.17 385.02 -15.9 385.25 -15.67C385.47 -15.45 385.74 -15.34 386.06 -15.34C386.38 -15.34 386.66 -15.45 386.89 -15.67C387.12 -15.9 387.24 -16.17 387.24 -16.49C387.24 -16.81 387.12 -17.08 386.89 -17.32C386.66 -17.55 386.38 -17.66 386.06 -17.66C385.74 -17.66 385.47 -17.55 385.25 -17.32C385.02 -17.08 384.91 -16.81 384.91 -16.49Z M398.14 0.72L402.53 -11.62C402.56 -11.7 402.55 -11.77 402.5 -11.84C402.46 -11.92 402.38 -11.95 402.29 -11.95L401.23 -11.95C401.14 -11.95 401.05 -11.92 400.97 -11.86C400.89 -11.79 400.83 -11.71 400.8 -11.62L397.1 -0.62L393.55 -11.62C393.46 -11.84 393.31 -11.95 393.12 -11.95L392.04 -11.95C391.94 -11.95 391.87 -11.92 391.82 -11.84C391.78 -11.77 391.77 -11.7 391.8 -11.62L396.02 0.72C396.09 0.93 396.24 1.03 396.48 1.03L397.66 1.03C397.9 1.03 398.06 0.93 398.14 0.72Z M414.86 -5.74L414.86 -4.92C414.86 -4.12 414.77 -3.41 414.58 -2.8C414.38 -2.18 414.11 -1.66 413.76 -1.25C413.41 -0.83 413 -0.51 412.52 -0.29C412.05 -0.06 411.54 0.05 410.98 0.05C410.18 0.05 409.54 -0.14 409.06 -0.53C408.78 -0.72 408.58 -0.99 408.46 -1.33C408.33 -1.68 408.26 -2.05 408.26 -2.45C408.26 -3.1 408.43 -3.67 408.77 -4.14C409.1 -4.61 409.61 -4.97 410.28 -5.21C410.74 -5.38 411.32 -5.52 412.02 -5.63C412.72 -5.73 413.51 -5.77 414.41 -5.74ZM408.02 -9.94C408.6 -10.29 409.21 -10.54 409.85 -10.69C410.49 -10.84 411.17 -10.92 411.89 -10.92C412.96 -10.92 413.72 -10.66 414.18 -10.13C414.64 -9.6 414.86 -8.83 414.86 -7.82L414.86 -7.1L414.55 -7.1C412.17 -7.1 410.4 -6.9 409.25 -6.48C408.3 -6.13 407.6 -5.6 407.15 -4.9C406.69 -4.19 406.46 -3.35 406.46 -2.38C406.46 -1.96 406.53 -1.54 406.66 -1.12C406.78 -0.69 406.98 -0.32 407.23 0C407.98 0.94 409.17 1.42 410.78 1.42C411.71 1.42 412.57 1.19 413.36 0.74C414.16 0.3 414.72 -0.34 415.06 -1.15L415.06 0.7C415.06 0.92 415.17 1.03 415.39 1.03L416.26 1.03C416.48 1.03 416.59 0.92 416.59 0.7C416.56 0.34 416.54 -0.02 416.52 -0.4C416.5 -0.77 416.5 -1.2 416.5 -1.68L416.5 -7.7C416.5 -9.24 416.13 -10.39 415.39 -11.15C414.66 -11.91 413.49 -12.29 411.89 -12.29C411.14 -12.29 410.44 -12.23 409.81 -12.11C409.18 -11.99 408.58 -11.78 408.02 -11.47C407.8 -11.36 407.69 -11.19 407.69 -10.97L407.69 -10.06C407.69 -9.98 407.72 -9.92 407.8 -9.9C407.87 -9.88 407.94 -9.89 408.02 -9.94Z M429 1.06C429.22 0.96 429.32 0.8 429.29 0.58L429.24 -0.05C429.24 -0.14 429.2 -0.21 429.13 -0.24C429.06 -0.27 428.98 -0.27 428.9 -0.24C428.34 -0.05 427.84 0.05 427.39 0.05C426.24 0.05 425.66 -0.66 425.66 -2.09L425.66 -10.56L428.33 -10.56C428.55 -10.56 428.66 -10.67 428.66 -10.9L428.66 -11.62C428.66 -11.84 428.55 -11.95 428.33 -11.95L425.66 -11.95L425.66 -15.19C425.66 -15.43 425.56 -15.55 425.35 -15.55L424.34 -15.55C424.14 -15.55 424.03 -15.43 424.03 -15.19L424.03 -11.95L421.78 -11.95C421.55 -11.95 421.44 -11.84 421.44 -11.62L421.44 -10.9C421.44 -10.67 421.55 -10.56 421.78 -10.56L424.03 -10.56L424.03 -2.9C424.03 -1.45 424.17 -0.43 424.44 0.14C424.86 0.99 425.71 1.42 427.01 1.42C427.66 1.42 428.33 1.3 429 1.06Z M442.08 -6.36L434.88 -6.36C434.9 -6.89 435 -7.43 435.19 -7.99C435.38 -8.55 435.62 -9.05 435.91 -9.48C436.63 -10.44 437.57 -10.92 438.72 -10.92C439.84 -10.92 440.7 -10.45 441.29 -9.5C441.56 -9.09 441.76 -8.62 441.89 -8.11C442.02 -7.6 442.08 -7.02 442.08 -6.36ZM434.88 -4.99L442.99 -4.99C443.22 -4.99 443.39 -5 443.51 -5C443.63 -5.01 443.71 -5.04 443.76 -5.09C443.81 -5.14 443.84 -5.22 443.84 -5.33C443.85 -5.44 443.86 -5.6 443.86 -5.81C443.86 -7.71 443.45 -9.23 442.63 -10.37C442.17 -11.01 441.61 -11.49 440.95 -11.81C440.3 -12.13 439.52 -12.29 438.62 -12.29C437.01 -12.29 435.67 -11.66 434.62 -10.39C433.61 -9.14 433.1 -7.5 433.1 -5.47C433.1 -3.17 433.61 -1.44 434.62 -0.3C435.62 0.84 437.11 1.42 439.08 1.42C439.75 1.42 440.38 1.36 440.95 1.26C441.53 1.16 442.08 1 442.61 0.79C442.78 0.71 442.87 0.6 442.87 0.46L442.87 -0.62C442.87 -0.83 442.77 -0.89 442.56 -0.79C442.08 -0.52 441.56 -0.32 441 -0.2C440.44 -0.08 439.84 -0.02 439.2 -0.02C438.54 -0.02 437.95 -0.14 437.41 -0.36C436.88 -0.58 436.42 -0.9 436.03 -1.32C435.65 -1.74 435.36 -2.25 435.16 -2.87C434.96 -3.48 434.86 -4.19 434.88 -4.99Z"></path></g></g></svg>