<svg id="SvgjsSvg2287" width="300" height="70.64980849427022" xmlns="http://www.w3.org/2000/svg" version="1.1" xmlns:xlink="http://www.w3.org/1999/xlink" xmlns:svgjs="http://svgjs.com/svgjs"><defs id="SvgjsDefs2288"></defs><g id="SvgjsG2289" transform="scale(0.7168202972227091)" opacity="1"><g id="SvgjsG2290" class="ryyMpRbpG" transform="translate(-0.6889331663269042, 0) scale(0.9856)" light-content="false" fill="#319af6"><path d="M44 0l43.301 25v50L44 100 .699 75V25z"></path></g><g id="SvgjsG2291" class="SJekf6C-pG" transform="translate(11.980955377532787, 19.71200033599794) scale(0.9855999888000687)" light-content="true" fill="#ffffff"><path d="M23.277 50.636L10.108 17.018l-1.536.6 13.156 33.584zm-.345 3.641L25.173 60l1.537-.602-2.228-5.686zm-14.7-15.85c-.173 3.636 5.4 3.942 9.875 7.336l-4.492-11.469a24.56 24.56 0 0 0-5.383 4.133zm28.397-7.846c-.136-.013-.271-.017-.407-.026-.41.989-.902 2.227-1.414 3.616-2.665.976-5.1.709-7.027.062a95.95 95.95 0 0 0-1.49-3.693c-.209.013-.418.024-.629.041-2.285.233-5.102.756-8.02 1.842l9.163 23.393c1.164 1.005 2.486 1.585 4.341 1.516 5.291.202 6.276-4.828 11.457-10.188 4.606-4.762 11.649-4.639 11.455-8.716-5.508-5.625-12.637-7.357-17.429-7.847zm-8.326 5.066c.932.241 1.944.4 3.025.4.939 0 1.927-.118 2.948-.392-1.477 4.236-2.938 9.479-2.938 13.654 0-4.177-1.51-9.424-3.035-13.662zm16.151-21.258c-.137-1.739-.136-2.568-.179-3.095.001-.044.007-.083.009-.133a2.5 2.5 0 0 0-.002-.547C44.14 4.734 38.422 0 31.375 0c-7.134 0-12.917 4.852-12.917 10.835 0 .2.005.368.014.523l-.014.024s.005.023.018.066c.026.4.086.637.176.757.147 1.728-.462 2.252-.047 6.827.447 4.934 2.073 8.71 3.04 8.928.971.218 2.071.34 2.46-.36a.898.898 0 0 0 .104-.529l-.033-.035c-.071-.568-.591-1.202-1.145-1.904-.53-.67-.977-2.662-1.513-4.409-.969-.294-1.693-1.44-1.693-2.817 0-.791-.164-1.927.221-2.45.216-.293.6-.397 1.002-.433.008-.203.017-.411.028-.625.247-.86.497-1.61.552-2.039.029-.222-.078-.458-.263-.677.128-.724.303-1.356.544-1.752.437-.723 1.048-1.109 1.899-1.109 1.085-.011 2.565.613 4.585 1.979 1.106.749 2.117.996 3.024.955 2.009-.104 3.505-1.615 4.392-2.212.238-.16.565-.28.938-.322.05-.006.102-.009.154-.012.052-.003.102-.005.156-.005 1.439-.01 3.367 1.213 3.833 5.801.535.002 1.125.058 1.415.451.385.523.221 1.659.221 2.45 0 1.376-.722 2.523-1.691 2.817-1.139 2.122-1.652 4.883-1.849 6.545 0 0 .223 1.378 1.564 1.233 1.34-.144.776-2.866 1.669-5.188.895-2.322 1.713-2.611 2.235-4.426.522-1.813.224-1.669 0-4.498z"></path><path d="M38.394 15h-5.109c-.806 0-1.285.82-1.285 1.627V17h-2v-.373C30 15.82 29.711 15 28.906 15h-5.109c-.806 0-1.797.82-1.797 1.627v2.189c0 .807.991 1.184 1.797 1.184h5.109c.805 0 1.094-.377 1.094-1.184V18h2v.816c0 .807.479 1.184 1.285 1.184h5.109c.805 0 1.606-.377 1.606-1.184v-2.189C40 15.82 39.199 15 38.394 15z"></path></g><g id="SvgjsG2292" class="text" transform="translate(117.37493118092652, 69.4999993133545)" light-content="false" fill="#2b2b2b"><path d="M2.22 -6.12L2.52 0L22.2 0L22.44 -4.86L18.78 -7.02C18.22 -7.3 17.87 -7.58 17.73 -7.86C17.59 -8.14 17.52 -8.76 17.52 -9.72L17.52 -14.28L20.82 -14.16C26.06 -14.16 30.19 -15.36 33.21 -17.76C36.23 -20.16 37.74 -23.46 37.74 -27.66C37.74 -30.9 37.13 -33.5 35.91 -35.46C34.69 -37.42 32.77 -38.86 30.15 -39.78C27.53 -40.7 24.06 -41.16 19.74 -41.16C16.62 -41.16 13.7 -41.05 10.98 -40.83C8.26 -40.61 5.38 -40.26 2.34 -39.78L1.98 -34.92L5.1 -33.18C5.78 -32.9 6.2 -32.59 6.36 -32.25C6.52 -31.91 6.6 -31.22 6.6 -30.18L6.6 -7.32ZM26.1 -21.48C25.1 -21.04 23.52 -20.82 21.36 -20.82C19.88 -20.82 18.6 -20.94 17.52 -21.18L17.52 -33.96C19.2 -34.12 20.38 -34.2 21.06 -34.2C23.06 -34.2 24.51 -33.7 25.41 -32.7C26.31 -31.7 26.76 -30.02 26.76 -27.66C26.76 -25.5 26.54 -23.44 26.1 -21.48Z M46.74 -6.12L47.04 0L66.18 0L66.36 -5.16L63.3 -7.02C62.7 -7.3 62.33 -7.58 62.19 -7.86C62.05 -8.14 61.98 -8.76 61.98 -9.72L61.98 -33.12L66.3 -34.32L66.06 -40.44L46.8 -40.44L46.5 -35.1L49.62 -33.3C50.3 -33.02 50.72 -32.71 50.88 -32.37C51.04 -32.03 51.12 -31.34 51.12 -30.3L51.12 -7.32Z M84.42 -5.88L84.72 0L105.24 0L105.48 -4.8L101.76 -7.02C101.2 -7.3 100.86 -7.58 100.74 -7.86C100.62 -8.14 100.56 -8.76 100.56 -9.72L100.56 -33.3L105.48 -32.88L109.98 -27.54L114.3 -27.9C114.3 -31.22 114.14 -35.4 113.82 -40.44L76.26 -40.44C75.94 -35.4 75.78 -31.22 75.78 -27.9L80.16 -27.54L84.6 -32.88L89.64 -33.3L89.64 -7.32Z M127.74 -4.68C131.02 -0.96 135.7 0.9 141.78 0.9C144.5 0.9 147.33 0.47 150.27 -0.39C153.21 -1.25 155.72 -2.36 157.8 -3.72L155.94 -10.32C153.9 -9.64 151.81 -9.09 149.67 -8.67C147.53 -8.25 145.76 -8.04 144.36 -8.04C140.84 -8.12 138.27 -9.23 136.65 -11.37C135.03 -13.51 134.22 -16.8 134.22 -21.24C134.22 -23.32 134.42 -25.38 134.82 -27.42C135.22 -29.46 135.74 -31.1 136.38 -32.34C137.82 -32.62 139.34 -32.76 140.94 -32.76C143.06 -32.76 145 -32.5 146.76 -31.98L150.9 -25.92L155.46 -26.22C156.26 -30.58 156.84 -34.56 157.2 -38.16C152.24 -40.28 147.42 -41.34 142.74 -41.34C138.62 -41.34 135.06 -40.51 132.06 -38.85C129.06 -37.19 126.77 -34.79 125.19 -31.65C123.61 -28.51 122.82 -24.78 122.82 -20.46C122.82 -13.66 124.46 -8.4 127.74 -4.68Z M167.52 -6.3L167.82 0L186.42 0L186.66 -5.16L183.48 -7.02C182.88 -7.3 182.51 -7.58 182.37 -7.86C182.23 -8.14 182.16 -8.76 182.16 -9.72L182.16 -16.86L195.84 -16.26L195.84 -7.32L191.64 -6.18L191.94 0L210.18 0L210.42 -5.58L207.96 -7.02C207.4 -7.3 207.05 -7.58 206.91 -7.86C206.77 -8.14 206.7 -8.76 206.7 -9.72L206.7 -33.12L210.36 -34.14L210.12 -40.44L191.7 -40.44L191.4 -34.98L194.34 -33.3C195.02 -33.02 195.44 -32.71 195.6 -32.37C195.76 -32.03 195.84 -31.34 195.84 -30.3L195.84 -24.72L182.16 -24.36L182.16 -33.12L186.6 -34.32L186.3 -40.44L167.58 -40.44L167.4 -34.74L169.92 -33.3C170.56 -33.02 170.95 -32.71 171.09 -32.37C171.23 -32.03 171.3 -31.34 171.3 -30.3L171.3 -7.32Z M219.42 -6.12L219.72 0L252.84 0C253.28 -4 253.58 -8.1 253.74 -12.3L249.3 -12.6L244.68 -7.32L234.72 -7.14L234.72 -16.8L247.5 -15.42L247.5 -24.66L234.72 -23.58L234.72 -33.36L243.78 -33.12L248.04 -27.84L252.48 -28.14C252.48 -32.14 252.34 -36.24 252.06 -40.44L219.48 -40.44L219.3 -35.04L222.3 -33.3C222.98 -33.02 223.4 -32.71 223.56 -32.37C223.72 -32.03 223.8 -31.34 223.8 -30.3L223.8 -7.32Z M263.4 -6.12L263.7 0L282.24 0L282.48 -5.16L279.9 -6.66C279.34 -6.98 278.99 -7.27 278.85 -7.53C278.71 -7.79 278.64 -8.4 278.64 -9.36L278.64 -16.08L281.28 -16.02L290.16 0L301.08 0L301.14 -2.34L291.54 -17.82C293.9 -18.82 295.72 -20.25 297 -22.11C298.28 -23.97 298.92 -26.14 298.92 -28.62C298.92 -31.62 298.31 -34.03 297.09 -35.85C295.87 -37.67 293.94 -39.01 291.3 -39.87C288.66 -40.73 285.18 -41.16 280.86 -41.16C275.3 -41.16 269.52 -40.72 263.52 -39.84L263.16 -34.92L266.28 -33.18C266.96 -32.9 267.38 -32.59 267.54 -32.25C267.7 -31.91 267.78 -31.22 267.78 -30.18L267.78 -7.32ZM287.16 -23.4C286.16 -23 284.6 -22.8 282.48 -22.8C281.04 -22.8 279.8 -22.92 278.76 -23.16L278.76 -33.9C279.92 -34.02 281.06 -34.08 282.18 -34.08C284.18 -34.08 285.61 -33.66 286.47 -32.82C287.33 -31.98 287.76 -30.56 287.76 -28.56C287.76 -26.56 287.56 -24.84 287.16 -23.4Z"></path></g></g></svg>